REM DIRINDEX 1\2,1\3
REM DIRNAME cjc133,folder01,folder02
TITLE ""
FILE "DISC1Track19.mp3" MP3
  TRACK 01 AUDIO
    TITLE "0:"
    INDEX 01 00:00:00
  TRACK 02 AUDIO
    TITLE "3:cjc133_0830"
    INDEX 01 00:00:15
  TRACK 03 AUDIO
    TITLE "0:"
    INDEX 01 00:01:28
  TRACK 04 AUDIO
    TITLE "2:cjc133_0831"
    INDEX 01 00:02:06
  TRACK 05 AUDIO
    TITLE "2:cjc133_0832"
    INDEX 01 00:05:14
  TRACK 06 AUDIO
    TITLE "2:cjc133_0833"
    INDEX 01 00:08:01
  TRACK 07 AUDIO
    TITLE "0:"
    INDEX 01 00:09:67
  TRACK 08 AUDIO
    TITLE "2:cjc133_0834"
    INDEX 01 00:10:45
  TRACK 09 AUDIO
    TITLE "2:cjc133_0835"
    INDEX 01 00:11:50
  TRACK 10 AUDIO
    TITLE "2:cjc133_0836"
    INDEX 01 00:14:31
  TRACK 11 AUDIO
    TITLE "0:"
    INDEX 01 00:16:22
  TRACK 12 AUDIO
    TITLE "2:cjc133_0837"
    INDEX 01 00:16:71
  TRACK 13 AUDIO
    TITLE "2:cjc133_0838"
    INDEX 01 00:19:32
  TRACK 14 AUDIO
    TITLE "2:cjc133_0839"
    INDEX 01 00:21:72
  TRACK 15 AUDIO
    TITLE "0:"
    INDEX 01 00:23:46
  TRACK 16 AUDIO
    TITLE "2:cjc133_0840"
    INDEX 01 00:24:24
  TRACK 17 AUDIO
    TITLE "2:cjc133_0841"
    INDEX 01 00:26:09
  TRACK 18 AUDIO
    TITLE "2:cjc133_0842"
    INDEX 01 00:29:15
  TRACK 19 AUDIO
    TITLE "0:"
    INDEX 01 00:31:29
  TRACK 20 AUDIO
    TITLE "2:cjc133_0843"
    INDEX 01 00:32:07
  TRACK 21 AUDIO
    TITLE "2:cjc133_0844"
    INDEX 01 00:34:06
  TRACK 22 AUDIO
    TITLE "2:cjc133_0845"
    INDEX 01 00:37:03
  TRACK 23 AUDIO
    TITLE "0:"
    INDEX 01 00:39:19
  TRACK 24 AUDIO
    TITLE "2:cjc133_0846"
    INDEX 01 00:39:70
  TRACK 25 AUDIO
    TITLE "2:cjc133_0847"
    INDEX 01 00:41:00
  TRACK 26 AUDIO
    TITLE "2:cjc133_0848"
    INDEX 01 00:44:11
  TRACK 27 AUDIO
    TITLE "0:"
    INDEX 01 00:46:31
  TRACK 28 AUDIO
    TITLE "2:cjc133_0849"
    INDEX 01 00:47:07
  TRACK 29 AUDIO
    TITLE "2:cjc133_0850"
    INDEX 01 00:50:01
  TRACK 30 AUDIO
    TITLE "2:cjc133_0851"
    INDEX 01 00:53:27
  TRACK 31 AUDIO
    TITLE "0:"
    INDEX 01 00:55:55
  TRACK 32 AUDIO
    TITLE "2:cjc133_0852"
    INDEX 01 00:56:31
  TRACK 33 AUDIO
    TITLE "2:cjc133_0853"
    INDEX 01 00:57:58
  TRACK 34 AUDIO
    TITLE "2:cjc133_0854"
    INDEX 01 01:00:74
  TRACK 35 AUDIO
    TITLE "0:"
    INDEX 01 01:03:18
  TRACK 36 AUDIO
    TITLE "2:cjc133_0855"
    INDEX 01 01:03:73
  TRACK 37 AUDIO
    TITLE "2:cjc133_0856"
    INDEX 01 01:06:73
  TRACK 38 AUDIO
    TITLE "2:cjc133_0857"
    INDEX 01 01:11:31
  TRACK 39 AUDIO
    TITLE "0:"
    INDEX 01 01:14:72
  TRACK 40 AUDIO
    TITLE "2:cjc133_0858"
    INDEX 01 01:15:44
  TRACK 41 AUDIO
    TITLE "2:cjc133_0859"
    INDEX 01 01:19:58
  TRACK 42 AUDIO
    TITLE "2:cjc133_0860"
    INDEX 01 01:23:62
  TRACK 43 AUDIO
    TITLE "0:"
    INDEX 01 01:26:70
  TRACK 44 AUDIO
    TITLE "2:cjc133_0861"
    INDEX 01 01:27:44
  TRACK 45 AUDIO
    TITLE "2:cjc133_0862"
    INDEX 01 01:30:40
  TRACK 46 AUDIO
    TITLE "2:cjc133_0863"
    INDEX 01 01:34:46
  TRACK 47 AUDIO
    TITLE "0:"
    INDEX 01 01:37:56
  TRACK 48 AUDIO
    TITLE "2:cjc133_0864"
    INDEX 01 01:38:38
  TRACK 49 AUDIO
    TITLE "2:cjc133_0865"
    INDEX 01 01:39:35
  TRACK 50 AUDIO
    TITLE "2:cjc133_0866"
    INDEX 01 01:42:57
  TRACK 51 AUDIO
    TITLE "0:"
    INDEX 01 01:45:08
  TRACK 52 AUDIO
    TITLE "2:cjc133_0867"
    INDEX 01 01:45:55
  TRACK 53 AUDIO
    TITLE "2:cjc133_0868"
    INDEX 01 01:48:12
  TRACK 54 AUDIO
    TITLE "2:cjc133_0869"
    INDEX 01 01:51:30
  TRACK 55 AUDIO
    TITLE "0:"
    INDEX 01 01:53:63
  TRACK 56 AUDIO
    TITLE "2:cjc133_0870"
    INDEX 01 01:54:41
  TRACK 57 AUDIO
    TITLE "2:cjc133_0871"
    INDEX 01 01:57:08
  TRACK 58 AUDIO
    TITLE "2:cjc133_0872"
    INDEX 01 02:00:27
  TRACK 59 AUDIO
    TITLE "0:"
    INDEX 01 02:02:56
  TRACK 60 AUDIO
    TITLE "2:cjc133_0873"
    INDEX 01 02:03:34
  TRACK 61 AUDIO
    TITLE "2:cjc133_0874"
    INDEX 01 02:05:36
  TRACK 62 AUDIO
    TITLE "2:cjc133_0875"
    INDEX 01 02:08:25
  TRACK 63 AUDIO
    TITLE "0:"
    INDEX 01 02:10:24
